<?xml version="1.0" encoding="UTF-8" standalone="no"?>
<svg
   xmlns:dc="http://purl.org/dc/elements/1.1/"
   xmlns:cc="http://creativecommons.org/ns#"
   xmlns:rdf="http://www.w3.org/1999/02/22-rdf-syntax-ns#"
   xmlns:svg="http://www.w3.org/2000/svg"
   xmlns="http://www.w3.org/2000/svg"
   xmlns:sodipodi="http://sodipodi.sourceforge.net/DTD/sodipodi-0.dtd"
   xmlns:inkscape="http://www.inkscape.org/namespaces/inkscape"
   version="1.1"
   width="363.1969"
   height="252.70764"
   id="svg4"
   viewBox="0 0 363.1969 252.70764"
   sodipodi:docname="0053.svg"
   inkscape:version="0.92.3 (2405546, 2018-03-11)">
  <metadata
     id="metadata10">
    <rdf:RDF>
      <cc:Work
         rdf:about="">
        <dc:format>image/svg+xml</dc:format>
        <dc:type
           rdf:resource="http://purl.org/dc/dcmitype/StillImage" />
        <dc:title></dc:title>
      </cc:Work>
    </rdf:RDF>
  </metadata>
  <defs
     id="defs8" />
  <sodipodi:namedview
     pagecolor="#ffffff"
     bordercolor="#666666"
     borderopacity="1"
     objecttolerance="10"
     gridtolerance="10"
     guidetolerance="10"
     inkscape:pageopacity="0"
     inkscape:pageshadow="2"
     inkscape:window-width="640"
     inkscape:window-height="480"
     id="namedview6"
     showgrid="false"
     inkscape:zoom="0.28032173"
     inkscape:cx="254.26169"
     inkscape:cy="94.578758"
     inkscape:window-x="0"
     inkscape:window-y="0"
     inkscape:window-maximized="0"
     inkscape:current-layer="svg4"
     fit-margin-top="0"
     fit-margin-left="0"
     fit-margin-right="0"
     fit-margin-bottom="0" />
  <path
     d="m 254.90351,252.5736 c -11.6411,-2.5347 -21.8742,-6.8579 -31.923,-13.5697 -12.2969,-2.8945 -23.4266,-6.9509 -35.2119,-11.6958 -0.9856,-0.002 -1.9412,-0.004 -2.8968,-0.007 -12.9367,2.7782 -25.4265,5.8859 -38.5985,6.9911 -3.3769,1.127 -6.7243,2.2544 -10.0715,3.3817 -0.0915,0.9255 0.2948,1.7626 0.29,3.8529 -1.2268,1.1619 -3.2593,1.874 -4.8728,2.3482 -0.7783,0.894 -1.557,1.7884 -2.3054,2.6824 -6.3907,0.0156 -12.7814,0.0312 -19.1423,0.0766 -5.9414,-0.6404 -7.5269,0.5504 -9.5454,-4.7696 -6.204501,-3.1198 -13.473901,-10.751 -18.331401,-15.3012 -0.862,-1.8532 -1.7237,-3.6771 -2.556,-5.5003 0.0131,-5.8235 0.4136,-11.2873 1.6807,-16.9883 1.3799,-2.7442 3.5056,-5.2183 3.2142,-8.4141 -3.9688,-1.2932 -7.9659,-3.2729 -12.0858,-3.8497 -5.7138,4.407 -13.8909,2.0891 -19.9185,-0.0445 -5.69,-6.1348 -7.151,-7.1833 -8.9079,-9.3671 -3.2972,-7.8616 -4.5133,-11.5971 -4.9303,-12.0161 -0.1426,-3.0464 -0.2849,-6.0928 -0.3977,-9.1389 -3.1215,-6.2781 -5.1896,-16.1674 -10.9443,-20.1523 -4.7627,-6.8491 -7.5784,-16.2921 -9.7106,-24.2703 0.023,-10.2132 2.4956,-20.928396 5.474,-30.686696 -2.1133,-3.0807 -5.3623,-5.8056 -7.8642,-8.708 -5.9825003,-8.9422 -10.3782003,-19.5835 -14.44700032,-29.507 -0.7019,-6.6909 -0.8068,-13.1414 -0.7918,-19.8904 3.33640002,-9.6384 7.88750002,-14.9139 15.07070032,-22.0648997 4.7225,-1.8408 9.4748,-3.6519 14.2271,-5.46259997 5.8241,-0.4051 5.8241,-0.4051 12.8716,-0.3892 5.2826,1.47509997 9.9365,3.57589997 14.9184,5.85659997 4.3492,4.7579997 4.3492,4.7579997 5.7804,5.8064997 5.0896,7.507 8.0022,13.7251 10.2223,22.5096 12.9708,-4.6295 13.3898,-5.0468 15.0631,-5.4311 0.3892,-0.4173 2.0624,-0.8314 2.4814,-1.2487 8.4563,-2.3403 19.264301,-1.1511 27.770501,0.8986 2.5095,-0.4125 2.5095,-0.4125 4.5717,-1.2441 3.7032,0.008 7.1359,0.6732 10.7776,1.2784 10.1596,-2.7544 21.4268,-6.6113 31.9683,-6.5874 2.0593,0.5419 4.1184,1.114 6.2076,1.686 2.2351,2.0954 4.4699,4.191 6.705,6.3162 1.1251,4.3327 2.2502,8.6652 3.405,12.9979 1.1322,1.1971 2.2643,2.3942 3.3962,3.621 8.2446,-1.0267 17.2086,-3.3656 25.4509,-3.3471 1.8175,1.8258 6.3827,3.4784 9.0986,4.1714 4.7996,3.6839 10.9746,6.7437 10.9593,13.4927 -0.8407,2.0885 -0.8407,2.0885 -1.2345,4.5663 6.6062,10.3773 6.6062,10.3773 7.53,11.3051 4.6525,2.7278 15.4715,12.159 16.6569,16.1334 1.3136,0.2719 1.8485,1.4377 2.6822,2.4846 8.0801,5.721996 13.2006,12.781096 22.9892,15.610396 11.0761,1.3685 28.4247,2.154 28.3907,17.2647 -0.7543,3.4622 -1.984,5.8487 -3.7528,8.9206 0.4762,0.7177 6.4111,4.1652 8.0498,5.8113 2.5047,1.6781 2.5047,1.6781 7.2434,6.0188 1.3091,2.2127 2.1354,6.5747 4.3427,7.6844 3.1229,5.6214 13.7188,8.034 15.7362,13.9516 3.4288,2.3967 10.2847,7.9963 11.5906,11.6425 2.0285,0.9303 3.7851,3.2638 5.1849,4.9691 6.6614,12.5274 10.0936,26.6902 1.5539,39.4223 -4.6678,4.1405 -9.6035,7.8624 -14.7478,11.3745 -9.0235,2.1598 -16.7573,1.844 -25.7108,-0.4756 -7.3678,-3.6899 -15.603,-6.9035 -22.371,-11.6668 -3.6434,-0.008 -9.2968,4.1598 -12.5856,5.8546 -0.1853,2.8066 -0.3707,5.6135 -0.5263,8.4201 -3.57,7.1889 -7.8727,8.314 -13.9139,12.2125 -4.4198,0.0499 -8.8396,0.0998 -13.2593,0.1794 z M 128.81451,69.798504 c -1.789,-1.2583 -5.0993,-3.2667 -5.0942,-5.5361 8.4886,-3.4152 16.4954,-4.9802 25.5181,-6.7813 0.5349,1.1656 1.358,6.961 1.3524,9.4397 -2.7831,2.6812 -7.3775,0.6105 -10.9908,0.6023 -3.615,0.7384 -7.2003,1.5069 -10.7855,2.2754 z M 70.945409,160.4816 c -0.8932,-1.1069 -1.7866,-2.2138 -2.6801,-3.3207 -2.0149,-6.9926 -5.7903,-14.6759 -5.7739,-21.9921 3.1901,2.3664 6.5319,3.6281 8.2859,7.0662 1.6407,14.099 1.6407,14.099 1.8406,18.2503 -0.5675,-0.001 -1.1347,-0.002 -1.6725,-0.004 z"
     style="fill:#1b1918;fill-rule:evenodd;stroke:#000000;stroke-width:0.21600001;stroke-linecap:butt;stroke-linejoin:miter;stroke-dasharray:none"
     id="path2"
     inkscape:connector-curvature="0" />
</svg>
